<?xml version="1.0" encoding="utf-8"?>
<!-- Generator: Adobe Illustrator 21.0.0, SVG Export Plug-In . SVG Version: 6.00 Build 0)  -->
<!DOCTYPE svg PUBLIC "-//W3C//DTD SVG 1.1//EN" "http://www.w3.org/Graphics/SVG/1.1/DTD/svg11.dtd">
<svg version="1.1" id="Ebene_1" xmlns="http://www.w3.org/2000/svg" xmlns:xlink="http://www.w3.org/1999/xlink" x="0px" y="0px"
	 viewBox="0 0 453.5 306.5" style="enable-background:new 0 0 453.5 306.5;" xml:space="preserve">
<style type="text/css">
	.st0{fill:#009BA3;}
	.st1{fill:#007480;}
	.st2{fill:#FFCB00;}
	.st3{fill:#75BE01;}
	.st4{fill:#32912E;}
	.st5{fill:#E10057;}
	.st6{fill:#A70836;}
	.st7{fill:#FF9D01;}
</style>
<g>
	<path d="M53.5,222h9.1l10.1,16.2L82.8,222h9.1v38.4h-8.4v-25l-10.8,16.4h-0.2l-10.7-16.2v24.9h-8.3V222z"/>
	<path d="M103.1,222h8.4v38.4h-8.4V222z"/>
	<path d="M121.1,241.3v-0.1c0-10.9,8.2-19.8,20-19.8c7.2,0,11.6,2.4,15.1,5.9l-5.4,6.2c-3-2.7-6-4.3-9.8-4.3
		c-6.5,0-11.1,5.4-11.1,11.9v0.1c0,6.6,4.5,12.1,11.1,12.1c4.4,0,7.1-1.8,10.1-4.5l5.4,5.4c-3.9,4.2-8.3,6.8-15.7,6.8
		C129.5,261.1,121.1,252.3,121.1,241.3z"/>
	<path d="M164.9,222h17.5c4.9,0,8.7,1.4,11.2,3.9c2.1,2.1,3.3,5.2,3.3,8.8v0.1c0,6.2-3.3,10.1-8.2,11.9l9.4,13.7h-9.9l-8.2-12.3
		h-6.6v12.3h-8.4V222z M181.8,240.7c4.1,0,6.5-2.2,6.5-5.4v-0.1c0-3.6-2.5-5.5-6.6-5.5h-8.4v11H181.8z"/>
	<path d="M204.4,241.3v-0.1c0-10.9,8.6-19.8,20.4-19.8c11.8,0,20.3,8.8,20.3,19.7v0.1c0,10.9-8.6,19.8-20.4,19.8
		C212.9,261.1,204.4,252.2,204.4,241.3z M236.4,241.3v-0.1c0-6.6-4.8-12.1-11.6-12.1c-6.8,0-11.5,5.4-11.5,11.9v0.1
		c0,6.6,4.8,12.1,11.6,12.1S236.4,247.9,236.4,241.3z"/>
	<path d="M254.3,222h9.1l10.1,16.2l10.1-16.2h9.1v38.4h-8.4v-25l-10.8,16.4h-0.2l-10.7-16.2v24.9h-8.3V222z"/>
	<path d="M316.7,221.8h7.8l16.4,38.6h-8.8l-3.5-8.6h-16.2l-3.5,8.6h-8.6L316.7,221.8z M325.5,244.3l-5.1-12.4l-5.1,12.4H325.5z"/>
	<path d="M352.4,229.8h-11.7V222h31.8v7.8h-11.7v30.6h-8.4V229.8z"/>
	<path d="M388.9,221.8h7.8l16.4,38.6h-8.8l-3.5-8.6h-16.2l-3.5,8.6h-8.6L388.9,221.8z M397.8,244.3l-5.1-12.4l-5.1,12.4H397.8z"/>
</g>
<polygon class="st0" points="148.3,115.7 126.4,93.9 126.4,93.9 73.3,40.8 51.4,62.6 104.5,115.8 51.4,168.9 73.3,190.7 
	126.4,137.6 126.4,137.6 "/>
<rect x="110.9" y="100.3" transform="matrix(-0.7074 0.7069 -0.7069 -0.7074 297.621 108.2746)" class="st1" width="30.9" height="30.9"/>
<polygon class="st2" points="248.1,40.8 226.3,62.6 279.4,115.8 226.3,168.9 248.1,190.7 301.3,137.6 323.1,115.7 "/>
<polygon class="st3" points="410.6,115.7 388.7,93.9 388.7,93.9 335.6,40.8 313.7,62.6 366.9,115.8 313.7,168.9 335.6,190.7 
	388.7,137.6 388.7,137.6 "/>
<rect x="373.3" y="100.3" transform="matrix(-0.7074 0.7069 -0.7069 -0.7074 745.4751 -77.1433)" class="st4" width="30.9" height="30.9"/>
<polygon class="st5" points="235.7,115.7 160.7,40.8 138.9,62.6 192,115.8 138.9,168.9 160.7,190.7 213.8,137.6 213.8,137.6 "/>
<rect x="198.4" y="100.3" transform="matrix(-0.7071 0.7072 -0.7072 -0.7071 446.8797 46.3762)" class="st6" width="30.9" height="30.9"/>
<rect x="285.8" y="100.3" transform="matrix(-0.7071 0.7072 -0.7072 -0.7071 596.1343 -15.4534)" class="st7" width="30.9" height="30.9"/>
</svg>
