<?xml version="1.0" encoding="utf-8"?>
<!-- Generator: Adobe Illustrator 23.0.4, SVG Export Plug-In . SVG Version: 6.00 Build 0)  -->
<svg version="1.1" id="Ebene_1" xmlns="http://www.w3.org/2000/svg" xmlns:xlink="http://www.w3.org/1999/xlink" x="0px" y="0px"
	 viewBox="0 0 646.2 175.6" style="enable-background:new 0 0 646.2 175.6;" xml:space="preserve">
<style type="text/css">
	.st0{fill:#009BA3;}
	.st1{fill:#007480;}
	.st2{fill:#FFCB00;}
	.st3{fill:#75BE01;}
	.st4{fill:#32912E;}
	.st5{fill:#E10057;}
	.st6{fill:#A70836;}
	.st7{fill:#FF9D01;}
</style>
<polygon class="st0" points="485.3,87.8 476.7,79.3 476.7,79.3 456,58.5 447.4,67.1 468.2,87.8 447.4,108.6 456,117.1 476.7,96.3 
	476.7,96.3 "/>
<rect x="470.6" y="81.8" transform="matrix(0.7074 -0.7069 0.7069 0.7074 77.4116 362.6113)" class="st1" width="12.1" height="12.1"/>
<g>
	<path d="M58.5,68.3h9.2L78,84.8l10.2-16.5h9.2v39h-8.5V81.8l-11,16.7h-0.2L66.9,82v25.3h-8.4V68.3z"/>
	<path d="M108.9,68.3h8.6v39h-8.6V68.3z"/>
	<path d="M127.2,87.9L127.2,87.9c0-11.2,8.4-20.3,20.3-20.3c7.4,0,11.8,2.5,15.4,6l-5.5,6.3c-3-2.7-6.1-4.4-10-4.4
		c-6.6,0-11.3,5.5-11.3,12.1v0.1c0,6.7,4.6,12.3,11.3,12.3c4.5,0,7.2-1.8,10.3-4.6l5.5,5.5c-4,4.3-8.5,7-16,7
		C135.7,108,127.2,99.1,127.2,87.9z"/>
	<path d="M171.7,68.3h17.8c5,0,8.8,1.4,11.4,4c2.2,2.2,3.3,5.2,3.3,8.9v0.1c0,6.3-3.4,10.3-8.4,12.1l9.5,13.9h-10l-8.4-12.5h-6.7
		v12.5h-8.6v-39H171.7z M189,87.2c4.2,0,6.6-2.2,6.6-5.5v-0.1c0-3.7-2.6-5.6-6.7-5.6h-8.5v11.2H189z"/>
	<path d="M211.9,87.9L211.9,87.9c0-11.2,8.7-20.3,20.8-20.3c12,0,20.7,9,20.7,20.1v0.1c0,11.1-8.7,20.2-20.8,20.2
		C220.6,108,211.9,99,211.9,87.9z M244.4,87.9L244.4,87.9c0-6.8-4.9-12.4-11.8-12.4s-11.7,5.5-11.7,12.1v0.1
		c0,6.7,4.9,12.3,11.8,12.3C239.6,100,244.4,94.6,244.4,87.9z"/>
	<path d="M262.7,68.3h9.2l10.3,16.5l10.2-16.5h9.2v39h-8.5V81.8l-11,16.7h-0.2L271,82v25.3h-8.4v-39H262.7z"/>
	<path d="M326.1,68h7.9l16.7,39.3h-9l-3.6-8.7h-16.5l-3.6,8.7h-8.7L326.1,68z M335.1,91l-5.2-12.7l-5.2,12.6h10.4V91z"/>
	<path d="M362.4,76.2h-11.8v-7.9h32.3v7.9H371v31.1h-8.6V76.2z"/>
	<path d="M399.5,68h7.9l16.7,39.3h-9l-3.6-8.7H395l-3.6,8.7h-8.7L399.5,68z M408.5,91l-5.2-12.7l-5.2,12.6h10.4V91z"/>
</g>
<polygon class="st2" points="524.3,58.5 515.7,67.1 536.5,87.8 515.7,108.6 524.3,117.1 553.6,87.8 "/>
<polygon class="st3" points="587.7,87.8 579.2,79.3 579.2,79.3 558.4,58.5 549.9,67.1 570.6,87.8 549.9,108.6 558.4,117.1 
	579.2,96.3 579.2,96.3 "/>
<rect x="573.1" y="81.7" transform="matrix(0.7074 -0.7069 0.7069 0.7074 107.4278 435.0443)" class="st4" width="12.1" height="12.1"/>
<polygon class="st5" points="490.1,58.5 481.6,67.1 502.3,87.8 481.6,108.6 490.1,117.1 510.9,96.3 519.4,87.8 "/>
<rect x="504.8" y="81.7" transform="matrix(0.7071 -0.7072 0.7072 0.7071 87.5664 386.946)" class="st6" width="12.1" height="12.1"/>
<rect x="538.9" y="81.8" transform="matrix(0.7071 -0.7072 0.7072 0.7071 97.5338 411.0803)" class="st7" width="12.1" height="12.1"/>
</svg>
